<svg width="167" height="105" viewBox="0 0 167 105" fill="none" xmlns="http://www.w3.org/2000/svg">
<g clip-path="url(#clip0_125_1256)">
<path fill-rule="evenodd" clip-rule="evenodd" d="M29.7056 10.1747C33.3746 8.65136 37.7694 8.38335 42.6634 10.0704C49.6356 12.4738 53.4735 19.0426 53.7437 25.9634C54.8007 25.1068 55.7987 24.3663 56.7237 23.8364L59.8512 22.5716L62.7877 22.3537L65.4758 23.0259L67.7687 24.4365L69.803 26.663L71.1586 29.3277L71.7662 32.1638L71.6975 34.9607C71.6488 35.3232 71.5801 35.6959 71.4915 36.0769C71.6632 35.9848 71.834 35.8995 72.0041 35.8207L74.7728 34.9999L77.94 35.1135L79.7443 35.643L81.5917 36.575L83.8375 38.6053L85.277 41.2371L85.7313 43.1781L85.8135 44.9033C85.8007 45.3472 85.7544 45.8219 85.6762 46.3244C87.5651 46.0476 89.5124 46.1102 91.4372 46.4799C95.8802 47.3329 100.146 49.9585 103.046 53.7656C104.476 49.1868 106.415 44.9655 108.501 42.1891C110.028 40.1554 111.71 38.7247 113.318 37.8808L115.82 36.9492L118.805 36.7498L121.045 37.2297L123.07 38.2034L124.689 39.4836L125.081 39.9332L127.01 38.5386L129.552 37.5702L132.113 37.3101L134.778 37.7765L137.26 38.9289L139.391 40.6938L141.152 43.2335C141.702 44.3157 142.125 45.5646 142.4 46.9844C142.625 48.1463 142.727 49.4936 142.765 50.9996C145.201 49.7668 147.883 49.1187 150.474 49.1206C156.478 49.1251 161.833 52.2882 163.714 58.637L164.2 61.3647L164.016 64.33L163.358 66.277L164.507 68.4792L164.902 70.4202L164.891 72.4045L164.372 74.6334L163.446 76.5402L161.64 78.7517L159.599 80.3444C155.016 83.2656 147.103 84.0872 141.315 80.6111L140.628 81.1643L137.467 82.5439L134.212 82.8074L131.057 82.0657L128.18 80.3173L125.914 77.5916C124.73 75.5486 123.779 72.7173 123.145 69.5478L122.237 69.6054L121.519 69.4917C121.605 71.5179 121.86 73.0127 121.805 74.0822L121.312 76.822L120.19 79.063L118.301 81.0031L115.197 82.5C109.187 84.1934 104.557 81.7448 102.257 76.4907C101.716 77.0208 101.128 77.5102 100.491 77.9541C98.3863 79.4207 95.5776 80.5041 91.9003 80.6246C92.0735 82.1296 92.3386 83.6616 92.5478 85.1099C93.0603 88.6587 93.4228 91.8905 93.1825 94.1179L92.7641 96.256L92.1206 97.8918L91.2049 99.3457L89.8549 100.728L88.1344 101.808L86.2734 102.43L84.1713 102.624L81.5087 102.229L78.9882 101.116L76.4294 98.798C74.8231 96.7949 73.3701 93.3179 72.5214 88.9205C72.2963 87.7533 72.1047 86.5094 71.9442 85.2137L69.7064 85.4612L67.2011 85.1051L64.8523 84.1087L62.9386 82.6413L61.8384 81.3256C58.4959 82.8138 54.1039 83.367 50.0156 82.4401L49.8237 83.6066L48.6856 85.8811L47.0368 87.8004C46.0548 88.7042 44.7659 89.568 43.0398 90.2817C42.6667 90.4358 42.2804 90.5564 41.8857 90.641L38.1601 90.8206L34.6195 89.8075C32.8271 88.9732 31.0321 87.6008 29.3858 85.5498C28.0923 83.9387 26.8342 81.7655 25.6791 79.0295C25.6548 80.243 25.7304 81.2881 25.5795 82.1296L24.3853 85.5322L22.5608 87.8491L20.1635 89.5009C19.1888 89.9887 17.9773 90.4135 16.4366 90.6873L13.9466 90.8198L11.5661 90.3807L9.40455 89.4642L7.5116 88.1653C3.74353 85.0229 -0.0019505 77.6627 3.45204 66.0735C4.54246 62.4152 6.58206 59.2813 8.59061 56.2959C9.69356 54.6566 10.9001 53.1597 11.2252 51.368C11.5007 49.8495 12.0595 48.2557 10.1644 46.0204C-3.35639 30.0732 3.85211 11.7286 11.4641 5.36111C13.1229 3.97362 14.8498 3.04615 16.4815 2.53975L18.582 2.09489L20.9014 2.08667L22.9068 2.51603L24.8257 3.37388L26.5092 4.60002L27.875 6.07797L29.0848 8.12619L29.7056 10.1747ZM35.4321 32.3868C36.1846 31.7675 37.0722 31.3126 38.0394 31.0672C39.7734 30.6275 40.305 28.7121 40.3711 27.0136C40.4382 25.2915 40.0291 23.3178 38.3021 22.7225C34.7446 21.4962 32.2367 24.1719 31.7414 26.9001C31.4972 28.2452 31.6995 29.7556 33.0846 30.4447C34.0321 30.9162 34.8253 31.5876 35.4321 32.3868Z" fill="white"/>
<path fill-rule="evenodd" clip-rule="evenodd" d="M73.7613 33.1927L74.1988 33.063C74.4087 33.0008 74.6267 32.9731 74.8455 32.981L78.0126 33.0946C78.181 33.1006 78.3479 33.1276 78.5092 33.175L80.3127 33.7045C80.4301 33.739 80.5442 33.784 80.6536 33.8391L82.5018 34.7711C82.6631 34.8525 82.8124 34.9553 82.9465 35.0765L85.1924 37.1069C85.36 37.2586 85.5013 37.4374 85.6099 37.6359L87.0486 40.2676C87.1364 40.4275 87.2019 40.5986 87.2434 40.7761L87.6984 42.717C87.7264 42.8367 87.7431 42.9587 87.7487 43.0815L87.799 44.1344C89.1339 44.1162 90.4808 44.239 91.818 44.4959C95.6127 45.2246 99.294 47.1192 102.25 49.8848C103.588 46.3629 105.198 43.223 106.886 40.9759C108.622 38.6628 110.551 37.0518 112.379 36.092C112.455 36.0522 112.533 36.0173 112.613 35.9875L115.115 35.056C115.297 34.9878 115.49 34.9466 115.685 34.9335L118.67 34.734C118.856 34.7216 119.044 34.7351 119.228 34.7743L121.468 35.2542C121.624 35.2878 121.776 35.3398 121.92 35.4091L123.945 36.3827C124.079 36.4472 124.206 36.5262 124.322 36.6183L125.228 37.3343L125.827 36.9015C125.97 36.798 126.126 36.7137 126.291 36.6508L128.833 35.6823C128.998 35.6193 129.171 35.5782 129.348 35.5603L131.908 35.3002C132.093 35.2815 132.278 35.2882 132.461 35.32L135.126 35.7865C135.301 35.8169 135.47 35.87 135.629 35.9442L138.111 37.0966C138.268 37.1695 138.415 37.2623 138.548 37.3728L140.679 39.1377C140.821 39.2551 140.947 39.3913 141.051 39.5426L142.812 42.0824C142.864 42.1578 142.911 42.2366 142.953 42.3184C143.58 43.5544 144.069 44.9787 144.383 46.6C144.472 47.0596 144.544 47.546 144.602 48.0577C146.529 47.4244 148.526 47.0989 150.475 47.1003C157.369 47.1055 163.491 50.7735 165.651 58.0628C165.672 58.1351 165.69 58.2086 165.703 58.2829L166.189 61.0106C166.217 61.1685 166.225 61.3293 166.216 61.4895L166.032 64.4548C166.021 64.6324 165.987 64.8078 165.929 64.9765L165.548 66.1065L166.298 67.5442C166.386 67.712 166.449 67.8911 166.487 68.0765L166.882 70.0175C166.909 70.1536 166.922 70.2922 166.922 70.4311L166.911 72.4155C166.91 72.566 166.893 72.7159 166.859 72.8624L166.34 75.0917C166.305 75.2378 166.255 75.3807 166.189 75.5156L165.263 77.423C165.195 77.5635 165.109 77.696 165.01 77.8182L163.205 80.0288C163.109 80.1462 163.002 80.2516 162.883 80.3442L160.841 81.937C160.791 81.9761 160.738 82.0128 160.685 82.0471C155.88 85.1105 147.795 86.1029 141.477 82.9972C141.463 83.0036 141.45 83.01 141.435 83.0155L138.274 84.3951C138.07 84.4838 137.852 84.5388 137.629 84.5572L134.376 84.8207C134.166 84.8374 133.955 84.8215 133.751 84.7736L130.595 84.0319C130.387 83.9832 130.189 83.9017 130.008 83.7916L127.131 82.0431C126.94 81.9274 126.769 81.7805 126.626 81.608L124.36 78.8832C124.288 78.7962 124.223 78.7028 124.166 78.6038C123.877 78.1048 123.599 77.5611 123.335 76.9807L123.299 77.1795C123.265 77.3687 123.204 77.5531 123.118 77.7255L121.996 79.9666C121.903 80.1526 121.783 80.3234 121.637 80.4727L119.747 82.412C119.583 82.5812 119.391 82.7202 119.178 82.8223L116.074 84.3193C115.968 84.3704 115.858 84.4119 115.744 84.4438C112.195 85.4442 109.055 85.1696 106.459 83.9209C104.551 83.002 102.921 81.5465 101.649 79.6089L101.646 79.6113C99.7155 80.9558 97.2653 82.0288 94.1876 82.4559C94.3082 83.2567 94.4359 84.0502 94.5469 84.8207C95.0882 88.5682 95.4442 91.9821 95.1912 94.3341C95.1848 94.3915 95.176 94.4482 95.1648 94.5049L94.7473 96.643C94.7233 96.7635 94.689 96.8817 94.6443 96.9958L94 98.6317C93.9537 98.7483 93.897 98.8608 93.8291 98.9678L92.9142 100.422C92.8384 100.542 92.7497 100.655 92.6499 100.756L91.2999 102.139C91.1889 102.253 91.0636 102.354 90.9286 102.438L89.2082 103.519C89.0724 103.603 88.9271 103.672 88.7754 103.723L86.9144 104.346C86.7667 104.395 86.6143 104.427 86.4594 104.441L84.3565 104.635C84.196 104.65 84.0339 104.646 83.8742 104.622L81.2117 104.227C81.0328 104.2 80.8588 104.149 80.6935 104.077L78.1723 102.964C77.9743 102.877 77.7914 102.758 77.631 102.613L75.073 100.295C74.9939 100.223 74.9205 100.145 74.8534 100.062C73.101 97.8756 71.4643 94.1017 70.5382 89.3027C70.4217 88.6992 70.3139 88.0764 70.2141 87.4369L69.9283 87.4689C69.7598 87.4872 69.5898 87.4848 69.4221 87.4609L66.9168 87.1048C66.7436 87.0801 66.5735 87.033 66.4123 86.9643L64.0634 85.9679C63.9062 85.9017 63.7585 85.8154 63.6227 85.7116L61.709 84.2442C61.5909 84.1532 61.4831 84.0502 61.3881 83.9361L61.2228 83.7381C58.3127 84.7512 54.8785 85.1688 51.5108 84.7488L50.4921 86.7847C50.4179 86.9332 50.3259 87.0713 50.2178 87.1974L48.569 89.1167C48.5177 89.1766 48.4629 89.2333 48.4048 89.2868C47.2751 90.3262 45.7973 91.3274 43.8117 92.1481C43.326 92.3493 42.8231 92.5058 42.3091 92.616C42.2017 92.6391 42.0926 92.6535 41.9828 92.6583L38.2573 92.8379C38.0371 92.8483 37.8165 92.8227 37.6045 92.7621L34.0638 91.7497C33.9621 91.7202 33.8629 91.6835 33.7669 91.6388C31.7305 90.6903 29.6809 89.1447 27.8106 86.8142C27.4179 86.3256 27.0275 85.7883 26.6413 85.2039L26.2914 86.201C26.2177 86.4102 26.1099 86.6066 25.9723 86.7815L24.1479 89.0983C24.0226 89.258 23.874 89.3969 23.7071 89.5119L21.3098 91.1645C21.2323 91.218 21.1512 91.2659 21.0671 91.3074C19.9477 91.8679 18.5586 92.3621 16.7893 92.6758C16.7084 92.6902 16.6265 92.6998 16.5444 92.7038L14.0544 92.8371C13.8956 92.8459 13.7363 92.8355 13.5799 92.8068L11.1996 92.3669C11.0546 92.3405 10.913 92.2982 10.7773 92.2407L8.61566 91.3234C8.49159 91.2707 8.37311 91.206 8.26198 91.1294L6.36904 89.8313C6.31683 89.7953 6.26629 89.757 6.21767 89.7163C2.07875 86.2641 -2.27772 78.2253 1.51622 65.4963C2.66659 61.6365 4.79545 58.3178 6.91457 55.1681C7.85521 53.7701 8.96023 52.5351 9.23751 51.0072C9.42608 49.9678 9.92068 48.8565 8.62356 47.3266C-5.8486 30.2572 2.02047 10.627 10.168 3.8115C12.0556 2.23256 14.026 1.18646 15.8828 0.610272C15.9422 0.59183 16.0023 0.576181 16.063 0.563328L18.1635 0.118475C18.2987 0.0898935 18.4365 0.0752034 18.5748 0.0746446L20.8941 0.0664213C21.0387 0.0658624 21.183 0.0808722 21.3243 0.111131L23.3297 0.540574C23.4678 0.570114 23.6024 0.614104 23.7312 0.671667L25.65 1.52952C25.7787 1.58708 25.901 1.6579 26.0149 1.74085L27.6984 2.96698C27.8048 3.04451 27.9034 3.13217 27.9927 3.22885L29.3585 4.7068C29.4556 4.81194 29.5413 4.92707 29.6141 5.05034L30.824 7.09856C30.9061 7.23748 30.9713 7.38565 31.018 7.54006L31.0306 7.58141C34.6451 6.56812 38.7907 6.59846 43.3217 8.16039C49.9001 10.4281 54.0222 15.9855 55.3288 22.3158C55.4603 22.2348 55.5906 22.1573 55.7196 22.0834C55.799 22.0379 55.8814 21.9978 55.9663 21.9635L59.0934 20.6987C59.2876 20.6203 59.4928 20.5724 59.7011 20.5569L62.6376 20.339C62.8523 20.323 63.0687 20.3415 63.277 20.3938L65.966 21.0659C66.1663 21.1161 66.358 21.1968 66.5344 21.3052L68.8273 22.7158C68.987 22.8144 69.1331 22.9348 69.2592 23.0737L71.2943 25.3001C71.4172 25.4344 71.521 25.5848 71.6033 25.747L72.9589 28.4117C73.0379 28.5676 73.097 28.7333 73.1337 28.9045L73.7413 31.7406C73.774 31.8958 73.7892 32.0544 73.7852 32.2131L73.7613 33.1927ZM29.7056 10.1745L29.0848 8.12598L27.8749 6.07776L26.5092 4.59981L24.8256 3.37368L22.9067 2.51583L20.9014 2.08646L18.582 2.09468L16.4815 2.53954C14.8497 3.04594 13.1229 3.97341 11.4641 5.3609C3.85209 11.7284 -3.3564 30.073 10.1643 46.0202C12.0594 48.2555 11.5007 49.8493 11.2251 51.3678C10.9 53.1595 9.69354 54.6564 8.59059 56.2957C6.58205 59.2811 4.54245 62.415 3.45203 66.0733C-0.00196525 77.6625 3.74351 85.0227 7.51159 88.165L9.40453 89.464L11.5661 90.3805L13.9465 90.8196L16.4366 90.6871C17.9773 90.4133 19.1888 89.9885 20.1635 89.5007L22.5608 87.8489L24.3853 85.532L25.5795 82.1294C25.7304 81.2879 25.6547 80.2428 25.6791 79.0293C26.8342 81.7653 28.0923 83.9385 29.3858 85.5496C31.0321 87.6006 32.8271 88.973 34.6195 89.8073L38.1601 90.8204L41.8856 90.6408C42.2804 90.5562 42.6667 90.4356 43.0398 90.2815C44.7658 89.5678 46.0547 88.7039 47.0368 87.8002L48.6856 85.8809L49.8237 83.6063L50.0155 82.4399C54.1038 83.3668 58.4958 82.8136 61.8384 81.3254L62.9385 82.6411L64.8522 84.1085L67.201 85.1049L69.7063 85.461L71.9442 85.2135C72.1046 86.5092 72.2962 87.7531 72.5214 88.9203C73.3701 93.3177 74.8231 96.7946 76.4294 98.7978L78.9882 101.116L81.5087 102.228L84.1712 102.624L86.2733 102.43L88.1343 101.808L89.8548 100.727L91.2049 99.3454L92.1206 97.8916L92.7641 96.2557L93.1824 94.1177C93.4228 91.8903 93.0603 88.6584 92.5478 85.1097C92.3386 83.6614 92.0735 82.1294 91.9003 80.6244C95.5776 80.5039 98.3862 79.4205 100.491 77.9539C101.128 77.51 101.716 77.0206 102.257 76.4905C104.557 81.7445 109.187 84.1931 115.197 82.4998L118.301 81.0029L120.19 79.0628L121.311 76.8218L121.805 74.082C121.86 73.0125 121.605 71.5176 121.519 69.4915L122.237 69.6052L123.145 69.5476C123.779 72.7171 124.73 75.5484 125.914 77.5914L128.18 80.3171L131.057 82.0655L134.212 82.8072L137.467 82.5437L140.628 81.1641L141.315 80.6109C147.103 84.087 155.016 83.2654 159.599 80.3442L161.64 78.7514L163.446 76.54L164.372 74.6332L164.891 72.4043L164.902 70.42L164.507 68.479L163.358 66.2768L164.016 64.3298L164.2 61.3645L163.714 58.6368C161.833 52.288 156.478 49.1249 150.474 49.1204C147.883 49.1185 145.201 49.7666 142.765 50.9994C142.727 49.4934 142.625 48.1461 142.4 46.9842C142.125 45.5644 141.702 44.3155 141.152 43.2333L139.391 40.6936L137.26 38.9287L134.778 37.7763L132.113 37.3099L129.552 37.57L127.01 38.5384L125.081 39.933L124.689 39.4834L123.069 38.2032L121.045 37.2295L118.805 36.7496L115.819 36.949L113.318 37.8806C111.71 38.7244 110.028 40.1552 108.501 42.1889C106.415 44.9653 104.476 49.1866 103.046 53.7654C100.146 49.9583 95.8801 47.3327 91.4372 46.4797C89.5123 46.1099 87.5651 46.0474 85.6762 46.3242C85.7544 45.8217 85.8007 45.347 85.8135 44.9031L85.7313 43.1778L85.277 41.2369L83.8375 38.6051L81.5917 36.5748L79.7443 35.6428L77.9399 35.1133L74.7728 34.9997L72.004 35.8205C71.834 35.8993 71.6631 35.9846 71.4915 36.0767C71.5801 35.6957 71.6488 35.323 71.6975 34.9604L71.7661 32.1636L71.1586 29.3275L69.8029 26.6628L67.7687 24.4363L65.4758 23.0257L62.7876 22.3534L59.8512 22.5714L56.7237 23.8362C55.7987 24.3661 54.8007 25.1065 53.7437 25.9632C53.4735 19.0424 49.6356 12.4736 42.6634 10.0702C37.7694 8.38314 33.3746 8.65115 29.7056 10.1745ZM35.4321 32.3866C34.8253 31.5874 34.0321 30.916 33.0846 30.4445C31.6995 29.7554 31.4971 28.2449 31.7414 26.8999C32.2367 24.1717 34.7446 21.496 38.3021 22.7223C40.0291 23.3176 40.4382 25.2913 40.3711 27.0134C40.3049 28.7119 39.7734 30.6273 38.0394 31.067C37.0722 31.3124 36.1845 31.7673 35.4321 32.3866ZM35.7356 29.788C36.3059 29.4979 36.9113 29.2692 37.5428 29.109C37.8819 29.023 38.0043 28.6974 38.113 28.3843C38.2715 27.9284 38.3338 27.4185 38.3526 26.9348C38.3716 26.4462 38.3461 25.9282 38.2189 25.4566C38.1253 25.1098 38.004 24.7562 37.6437 24.6321C35.4869 23.8886 34.0292 25.6068 33.7289 27.2608C33.6737 27.5649 33.6474 27.8838 33.6996 28.1821C33.7311 28.3621 33.7955 28.5419 33.9845 28.636C34.6241 28.9543 35.2098 29.3426 35.7356 29.788Z" fill="#00BD84"/>
<path d="M22.7805 50.5008H25.4151L27.5307 45.4619L29.4185 50.5008H34.9706L37.0713 56.8877L41.5013 47.0678L44.4931 50.5008H63.9453" stroke="#FF7700" stroke-width="2.58353" stroke-miterlimit="1.5" stroke-linecap="round" stroke-linejoin="round"/>
<path fill-rule="evenodd" clip-rule="evenodd" d="M30.104 36.4355C19.3097 31.0648 26.8143 11.6846 40.4828 16.3964C49.6986 19.5732 49.0655 35.174 39.6844 37.5532C40.1361 38.569 46.6109 38.2048 48.6262 37.5532C55.3279 35.3864 60.1084 26.7532 63.4759 29.5695C67.752 33.1456 63.8902 42.6459 49.5842 46.4151C49.8542 41.2322 43.1698 36.8767 37.3691 45.1377C20.4395 29.3761 16.1069 57.5547 40.2433 63.5003C37.3846 71.8908 49.1506 80.5144 40.4828 84.0983C35.2974 85.2104 30.598 77.7344 28.108 62.4624C12.8289 74.1181 23.9746 82.5542 15.2682 84.0983C11.4734 84.7713 6.53315 79.1627 9.86476 67.9847C11.6477 62.0025 16.8409 57.8979 17.809 52.5626C18.3732 49.4535 19.1485 46.2698 15.2682 41.6931C0.452516 24.2184 17.0501 2.9663 22.5673 10.1527C25.2178 13.6049 18.9512 19.5829 18.9163 26.2618C18.8937 30.5879 21.9953 35.8309 30.104 36.4355Z" fill="#00BD84"/>
<path fill-rule="evenodd" clip-rule="evenodd" d="M51.829 68.3992C55.4558 72.2622 60.1731 67.432 61.5254 69.2108C66.8874 76.2651 43.7794 82.4073 44.5577 64.9793C44.9914 55.2674 58.9787 52.4529 61.3747 60.538C62.326 63.7457 60.6072 68.1022 51.829 68.3992ZM50.7355 64.6728C51.604 65.0597 55.9506 64.21 56.2613 62.3509C56.4884 60.9968 54.8425 59.3586 52.2704 60.6428C50.5437 61.505 49.4486 64.0994 50.7355 64.6728Z" fill="#00BD84"/>
<path fill-rule="evenodd" clip-rule="evenodd" d="M76.5509 41.6593C68.5378 39.9593 60.0858 78.6223 69.8078 78.7703C75.1428 78.8517 72.5877 71.1395 73.9552 61.7636C75.4213 51.7089 83.03 43.0338 76.5509 41.6593Z" fill="#00BD84"/>
<path fill-rule="evenodd" clip-rule="evenodd" d="M80.6877 56.7917C86.5307 48.3136 100.558 54.6414 100.072 65.2464C99.8009 71.1575 96.0716 75.9622 85.63 73.1041C83.1537 81.8855 90.5849 97.7391 83.2455 95.766C76.757 94.0223 76.772 62.4726 80.6877 56.7917ZM90.2188 60.3688C85.7642 58.679 82.565 65.3376 88.1512 67.532C90.381 68.408 93.3954 67.2638 93.6406 64.7164C93.8246 62.8043 92.6793 61.3022 90.2188 60.3688Z" fill="#00BD84"/>
<path fill-rule="evenodd" clip-rule="evenodd" d="M117.169 55.2709C117.831 58.4683 119.425 62.7646 122.572 62.9227C125.629 63.0763 128.783 58.6274 129.227 56.1541C128.376 62.4678 129.385 70.236 131.704 74.2387C133.515 77.3662 138.798 76.6638 138.388 72.0189C138.092 68.6597 136.025 67.507 135.996 61.4646C135.952 52.3626 137.281 45.6207 132.717 44.1428C128.127 42.6566 124.116 52.9849 123.621 53.9753C122.169 48.7847 121.432 43.7156 118.183 43.4125C110.088 42.6576 101.056 79.5322 113.381 76.0595C117.653 74.856 112.081 69.5601 117.169 55.2709Z" fill="#FF7700"/>
<path fill-rule="evenodd" clip-rule="evenodd" d="M147.752 68.3992C151.378 72.2622 156.096 67.432 157.448 69.2108C162.81 76.2651 139.702 82.4073 140.48 64.9793C140.914 55.2674 154.901 52.4529 157.297 60.538C158.249 63.7457 156.53 68.1022 147.752 68.3992ZM146.658 64.6728C147.527 65.0597 151.873 64.21 152.184 62.3509C152.411 60.9968 150.765 59.3586 148.193 60.6428C146.466 61.505 145.371 64.0994 146.658 64.6728Z" fill="#FF7700"/>
</g>
<defs>
<clipPath id="clip0_125_1256">
<rect width="167" height="104.757" fill="white"/>
</clipPath>
</defs>
</svg>
